<svg width="103" height="37" viewBox="0 0 103 37" fill="none" xmlns="http://www.w3.org/2000/svg">
<path d="M41.96 19H44.84C44.936 19 44.984 19.056 44.984 19.168V20.632C44.984 20.744 44.92 20.8 44.792 20.8H43.712C43.328 20.8 43.104 20.872 43.04 21.016C42.976 21.224 42.944 21.456 42.944 21.712V29.152C42.944 29.696 42.76 30.144 42.392 30.496C42.04 30.832 41.512 31 40.808 31H39.344V21.664C39.344 20.72 39.552 20.04 39.968 19.624C40.4 19.208 41.064 19 41.96 19Z" fill="#107C10"/>
<path d="M52.6537 20.8H51.3577C50.8617 20.8 50.5817 20.888 50.5177 21.064C50.4217 21.272 50.3737 21.568 50.3737 21.952V28.048C50.3737 28.08 50.3737 28.176 50.3737 28.336C50.3737 28.496 50.3897 28.632 50.4217 28.744C50.4857 29.048 50.7977 29.2 51.3577 29.2H52.6537V31H50.3257C49.7177 31 49.2217 30.976 48.8377 30.928C48.4537 30.864 48.1177 30.736 47.8297 30.544C47.5417 30.352 47.3257 30.144 47.1817 29.92C47.0377 29.68 46.9177 29.304 46.8217 28.792C46.7097 28.072 46.6537 27.064 46.6537 25.768C46.6537 24.472 46.6617 23.6 46.6777 23.152C46.6937 22.688 46.7177 22.2 46.7497 21.688C46.7977 21.176 46.8697 20.8 46.9657 20.56C47.0777 20.32 47.2137 20.08 47.3737 19.84C47.5497 19.584 47.7737 19.408 48.0457 19.312C48.6377 19.104 49.3977 19 50.3257 19H52.6537V20.8ZM58.0537 30.832C58.0537 30.944 58.0217 31 57.9577 31H55.9897C55.0937 31 54.4297 30.792 53.9977 30.376C53.5817 29.96 53.3737 29.28 53.3737 28.336V19H54.3577C55.3657 19 56.0537 19.24 56.4217 19.72C56.7897 20.184 56.9737 20.8 56.9737 21.568V28.288C56.9737 28.784 57.0777 29.064 57.2857 29.128C57.3977 29.176 57.5497 29.2 57.7417 29.2H57.8617C57.9897 29.2 58.0537 29.256 58.0537 29.368V30.832Z" fill="#107C10"/>
<path d="M70.6507 19H73.9147C75.6587 19 76.5307 19.856 76.5307 21.568V31H73.7947C73.5387 31 73.3307 30.912 73.1707 30.736C73.0107 30.56 72.9307 30.328 72.9307 30.04V21.52C72.9307 21.264 72.8667 21.08 72.7387 20.968C72.6267 20.856 72.3627 20.8 71.9467 20.8H70.6507V19ZM59.9467 19H61.4107C62.1147 19 62.6427 19.176 62.9947 19.528C63.3627 19.864 63.5467 20.304 63.5467 20.848V31H60.8107C60.5547 31 60.3467 30.912 60.1867 30.736C60.0267 30.56 59.9467 30.328 59.9467 30.04V19ZM64.1467 19H67.4107C69.1547 19 70.0267 19.856 70.0267 21.568V31H67.2907C67.0347 31 66.8267 30.912 66.6667 30.736C66.5067 30.56 66.4267 30.328 66.4267 30.04V21.52C66.4267 21.264 66.3627 21.08 66.2347 20.968C66.1227 20.856 65.8587 20.8 65.4427 20.8H64.1467V19Z" fill="#107C10"/>
<path d="M83.5552 19H85.8832C87.4672 19 88.4432 19.272 88.8112 19.816C88.9872 20.072 89.1232 20.32 89.2192 20.56C89.3312 20.8 89.4032 21.176 89.4352 21.688C89.5152 22.616 89.5552 23.648 89.5552 24.784C89.5552 25.92 89.5472 26.744 89.5312 27.256C89.5152 27.752 89.4592 28.264 89.3632 28.792C89.2832 29.304 89.1712 29.68 89.0272 29.92C88.8832 30.144 88.6672 30.352 88.3792 30.544C88.0912 30.736 87.7552 30.864 87.3712 30.928C86.9872 30.976 86.4912 31 85.8832 31H83.5552V29.2H84.8512C85.2672 29.2 85.5312 29.144 85.6432 29.032C85.7712 28.92 85.8352 28.744 85.8352 28.504V21.52C85.8352 21.264 85.7712 21.08 85.6432 20.968C85.5312 20.856 85.2672 20.8 84.8512 20.8H83.5552V19ZM82.8352 36.352H81.3712C80.6672 36.352 80.1312 36.176 79.7632 35.824C79.4112 35.488 79.2352 35.048 79.2352 34.504V20.848C79.2352 20.304 79.4112 19.864 79.7632 19.528C80.1312 19.176 80.6672 19 81.3712 19H82.8352V36.352Z" fill="#107C10"/>
<path d="M96.4453 19H98.7732C99.3812 19 99.8773 19.032 100.261 19.096C100.645 19.144 100.981 19.264 101.269 19.456C101.557 19.648 101.773 19.864 101.917 20.104C102.061 20.328 102.173 20.696 102.253 21.208C102.381 21.928 102.445 22.936 102.445 24.232C102.445 25.528 102.437 26.408 102.421 26.872C102.405 27.32 102.373 27.8 102.325 28.312C102.293 28.824 102.221 29.2 102.109 29.44C102.013 29.68 101.877 29.928 101.701 30.184C101.541 30.424 101.325 30.592 101.053 30.688C100.461 30.896 99.7012 31 98.7732 31H98.7253V21.952C98.7253 21.92 98.7253 21.824 98.7253 21.664C98.7253 21.504 98.7172 21.368 98.7012 21.256C98.6212 20.952 98.3012 20.8 97.7412 20.8H96.4453V19ZM95.7253 19V28.048C95.7253 28.08 95.7253 28.176 95.7253 28.336C95.7253 28.496 95.7412 28.632 95.7732 28.744C95.8372 29.048 96.1493 29.2 96.7093 29.2H98.0052V31H95.6773C95.0693 31 94.5732 30.976 94.1892 30.928C93.8052 30.864 93.4693 30.736 93.1813 30.544C92.8933 30.352 92.6772 30.144 92.5332 29.92C92.3892 29.68 92.2692 29.304 92.1732 28.792C92.0612 28.072 92.0052 27.064 92.0052 25.768C92.0052 24.472 92.0133 23.6 92.0293 23.152C92.0453 22.688 92.0692 22.2 92.1012 21.688C92.1492 21.176 92.2213 20.8 92.3173 20.56C92.4293 20.32 92.5653 20.08 92.7253 19.84C92.9013 19.584 93.1252 19.408 93.3972 19.312C93.9892 19.104 94.7493 19 95.6773 19H95.7253Z" fill="#107C10"/>
<path fill-rule="evenodd" clip-rule="evenodd" d="M36 0H0V36H36V0ZM18.816 6.864H8.8V9.328C8.8 10.352 9.10933 10.864 9.728 10.864H14.848V28.176C14.848 28.9227 14.9547 29.4133 15.168 29.648C15.4027 29.8827 15.8827 30 16.608 30H19.968V8.144C19.968 7.76 19.8613 7.45067 19.648 7.216C19.4347 6.98133 19.1573 6.864 18.816 6.864ZM26.368 6.864H21.248V10.864H27.296V8.4C27.296 7.376 26.9867 6.864 26.368 6.864Z" fill="#107C10"/>
</svg>
