<svg width="151" height="52" viewBox="0 0 151 52" fill="none" xmlns="http://www.w3.org/2000/svg">
<path fill-rule="evenodd" clip-rule="evenodd" d="M52.0464 7.22222C52.0464 3.2335 48.81 0 44.8177 0H7.22867C3.23639 0 0 3.2335 0 7.22222V44.7778C0 48.7665 3.23639 52 7.22867 52H44.8177C48.81 52 52.0464 48.7665 52.0464 44.7778V7.22222ZM27.2029 9.91466H16.2847C14.3173 9.91466 12.7225 11.5081 12.7225 13.4738C12.7225 14.9529 13.1697 15.6924 14.0641 15.6924H14.2376C18.2299 15.6924 21.4663 18.9259 21.4663 22.9147V40.6987C21.4663 41.7772 21.6205 42.4859 21.9289 42.8249C22.2682 43.1639 22.9621 43.3333 24.0107 43.3333C26.6936 43.3333 28.8684 41.1604 28.8684 38.48V11.7636C28.8684 11.2089 28.7142 10.7621 28.4058 10.4231C28.0974 10.0841 27.6964 9.91466 27.2029 9.91466ZM38.1211 9.91466H33.6104C32.0135 9.91466 30.7189 11.2081 30.7189 12.8036C30.7189 14.399 32.0135 15.6924 33.6104 15.6924H35.9005C37.8679 15.6924 39.4627 14.099 39.4627 12.1333C39.4627 10.6542 39.0155 9.91466 38.1211 9.91466Z" fill="#9575CD"/>
<path d="M63.5544 17.3333H67.7182C67.8569 17.3333 67.9263 17.4142 67.9263 17.576V19.6907C67.9263 19.8524 67.8338 19.9333 67.6488 19.9333H66.0874C65.5322 19.9333 65.2084 20.0373 65.1158 20.2453C65.0233 20.5458 64.977 20.8809 64.977 21.2507V31.9973C64.977 32.7831 64.711 33.4302 64.179 33.9387C63.6701 34.424 62.9068 34.6667 61.889 34.6667H59.7724V21.1813C59.7724 19.8178 60.0731 18.8356 60.6745 18.2347C61.2991 17.6338 62.2591 17.3333 63.5544 17.3333Z" fill="#9575CD"/>
<path d="M79.0147 19.9333H77.141C76.4239 19.9333 76.0191 20.0604 75.9266 20.3147C75.7878 20.6151 75.7184 21.0427 75.7184 21.5973V30.4027C75.7184 30.4489 75.7184 30.5876 75.7184 30.8187C75.7184 31.0498 75.7415 31.2462 75.7878 31.408C75.8803 31.8471 76.3314 32.0667 77.141 32.0667H79.0147V34.6667H75.649C74.77 34.6667 74.0529 34.632 73.4978 34.5627C72.9426 34.4702 72.4568 34.2853 72.0405 34.008C71.6241 33.7307 71.3118 33.4302 71.1036 33.1067C70.8954 32.76 70.7219 32.2169 70.5831 31.4773C70.4212 30.4373 70.3403 28.9813 70.3403 27.1093C70.3403 25.2373 70.3518 23.9778 70.375 23.3307C70.3981 22.6604 70.4328 21.9556 70.4791 21.216C70.5485 20.4764 70.6525 19.9333 70.7913 19.5867C70.9533 19.24 71.1499 18.8933 71.3812 18.5467C71.6356 18.1769 71.9595 17.9227 72.3527 17.784C73.2086 17.4836 74.3074 17.3333 75.649 17.3333H79.0147V19.9333ZM86.8216 34.424C86.8216 34.5858 86.7754 34.6667 86.6828 34.6667H83.8376C82.5423 34.6667 81.5823 34.3662 80.9577 33.7653C80.3563 33.1644 80.0556 32.1822 80.0556 30.8187V17.3333H81.4782C82.9355 17.3333 83.9302 17.68 84.4622 18.3733C84.9942 19.0436 85.2602 19.9333 85.2602 21.0427V30.7493C85.2602 31.4658 85.4106 31.8702 85.7113 31.9627C85.8732 32.032 86.093 32.0667 86.3706 32.0667H86.544C86.7291 32.0667 86.8216 32.1476 86.8216 32.3093V34.424Z" fill="#9575CD"/>
<path d="M105.034 17.3333H109.752C112.274 17.3333 113.534 18.5698 113.534 21.0427V34.6667H109.579C109.209 34.6667 108.908 34.5396 108.677 34.2853C108.445 34.0311 108.33 33.696 108.33 33.28V20.9733C108.33 20.6036 108.237 20.3378 108.052 20.176C107.89 20.0142 107.509 19.9333 106.907 19.9333H105.034V17.3333ZM89.5584 17.3333H91.675C92.6928 17.3333 93.4561 17.5876 93.965 18.096C94.497 18.5813 94.763 19.2169 94.763 20.0027V34.6667H90.8075C90.4374 34.6667 90.1367 34.5396 89.9054 34.2853C89.6741 34.0311 89.5584 33.696 89.5584 33.28V17.3333ZM95.6305 17.3333H100.349C102.871 17.3333 104.131 18.5698 104.131 21.0427V34.6667H100.176C99.8058 34.6667 99.5051 34.5396 99.2737 34.2853C99.0424 34.0311 98.9268 33.696 98.9268 33.28V20.9733C98.9268 20.6036 98.8342 20.3378 98.6492 20.176C98.4873 20.0142 98.1056 19.9333 97.5042 19.9333H95.6305V17.3333Z" fill="#9575CD"/>
<path d="M123.69 17.3333H127.056C129.346 17.3333 130.757 17.7262 131.289 18.512C131.543 18.8818 131.74 19.24 131.879 19.5867C132.041 19.9333 132.145 20.4764 132.191 21.216C132.307 22.5564 132.364 24.0471 132.364 25.688C132.364 27.3289 132.353 28.5191 132.33 29.2587C132.307 29.9751 132.226 30.7147 132.087 31.4773C131.971 32.2169 131.809 32.76 131.601 33.1067C131.393 33.4302 131.081 33.7307 130.664 34.008C130.248 34.2853 129.762 34.4702 129.207 34.5627C128.652 34.632 127.935 34.6667 127.056 34.6667H123.69V32.0667H125.564C126.165 32.0667 126.547 31.9858 126.709 31.824C126.894 31.6622 126.986 31.408 126.986 31.0613V20.9733C126.986 20.6036 126.894 20.3378 126.709 20.176C126.547 20.0142 126.165 19.9333 125.564 19.9333H123.69V17.3333ZM122.649 42.3973H120.533C119.515 42.3973 118.74 42.1431 118.208 41.6347C117.699 41.1493 117.444 40.5138 117.444 39.728V20.0027C117.444 19.2169 117.699 18.5813 118.208 18.096C118.74 17.5876 119.515 17.3333 120.533 17.3333H122.649V42.3973Z" fill="#9575CD"/>
<path d="M142.326 17.3333H145.691C146.57 17.3333 147.287 17.3796 147.843 17.472C148.398 17.5413 148.883 17.7147 149.3 17.992C149.716 18.2693 150.028 18.5813 150.237 18.928C150.445 19.2516 150.607 19.7831 150.722 20.5227C150.907 21.5627 151 23.0187 151 24.8907C151 26.7627 150.988 28.0338 150.965 28.704C150.942 29.3511 150.896 30.0444 150.827 30.784C150.78 31.5236 150.676 32.0667 150.514 32.4133C150.375 32.76 150.179 33.1182 149.924 33.488C149.693 33.8347 149.381 34.0773 148.988 34.216C148.132 34.5164 147.033 34.6667 145.691 34.6667H145.622V21.5973C145.622 21.5511 145.622 21.4124 145.622 21.1813C145.622 20.9502 145.61 20.7538 145.587 20.592C145.472 20.1529 145.009 19.9333 144.199 19.9333H142.326V17.3333ZM141.285 17.3333V30.4027C141.285 30.4489 141.285 30.5876 141.285 30.8187C141.285 31.0498 141.308 31.2462 141.354 31.408C141.447 31.8471 141.898 32.0667 142.707 32.0667H144.581V34.6667H141.215C140.336 34.6667 139.619 34.632 139.064 34.5627C138.509 34.4702 138.023 34.2853 137.607 34.008C137.19 33.7307 136.878 33.4302 136.67 33.1067C136.462 32.76 136.288 32.2169 136.149 31.4773C135.988 30.4373 135.907 28.9813 135.907 27.1093C135.907 25.2373 135.918 23.9778 135.941 23.3307C135.964 22.6604 135.999 21.9556 136.045 21.216C136.115 20.4764 136.219 19.9333 136.358 19.5867C136.52 19.24 136.716 18.8933 136.947 18.5467C137.202 18.1769 137.526 17.9227 137.919 17.784C138.775 17.4836 139.874 17.3333 141.215 17.3333H141.285Z" fill="#9575CD"/>
</svg>
